<?xml version="1.0" encoding="UTF-8"?>
<svg id="Layer_1" xmlns="http://www.w3.org/2000/svg" version="1.1" xmlns:xlink="http://www.w3.org/1999/xlink" viewBox="0 0 1920 1080">
  <!-- Generator: Adobe Illustrator 29.4.0, SVG Export Plug-In . SVG Version: 2.1.0 Build 152)  -->
  <defs>
    <style>
      .st0 {
        stroke-width: 1.3px;
      }

      .st0, .st1, .st2 {
        fill: none;
      }

      .st0, .st2 {
        stroke: #fff;
      }

      .st3 {
        fill: #fff;
      }

      .st4 {
        clip-path: url(#clippath);
      }
    </style>
    <clipPath id="clippath">
      <rect class="st1" width="1920" height="1080"/>
    </clipPath>
  </defs>
  <g class="st4">
    <g>
      <rect width="1920" height="1080"/>
      <path class="st2" d="M14.5,389.9v-110"/>
      <path class="st2" d="M316.8,389.9v-110"/>
      <path class="st2" d="M834.6,389.9v-110"/>
      <path class="st2" d="M1094.4,389.9v-110"/>
      <path class="st2" d="M1354.3,63.9V-46.1"/>
      <path class="st2" d="M46.9,64V-46"/>
      <path class="st2" d="M316.8,64V-46"/>
      <path class="st2" d="M1614.2,63.9V-46.1"/>
      <path class="st2" d="M1874.3,64V-46"/>
      <path class="st2" d="M1874.3,439.8v-110"/>
      <path class="st3" d="M1177.6,536.3v.6l-2.8,4.7,2.8,4.8v.6h-1.1l-2.7-4.8h-1.8v4.8h-1.2v-10.7h1.2v4.8h1.7s2.7-4.8,2.7-4.8h1.1ZM1186.9,537.4h-5.1v3.7h4.1v1.1h-4.1v3.7h5.1v1.1h-6.3v-10.7h6.3v1.1ZM1195.6,536.3h1v.6l-2.8,5.7v4.4h-1.2v-4.3l-2.8-5.8v-.6h1.1l2.2,4.8h.2l2.3-4.8ZM1205,541.1v1.1h-4.5v-1.1h4.5ZM1213.1,536.3l2.3,6v4.6h-1.2v-3.4h-3.9v3.4h-1.2v-4.5l2.4-6.2h1.6ZM1210.4,542.5h3.8l-1.8-4.8h-.2l-1.8,4.8ZM1223.8,536.3h1.2v7.8c0,1.8-1.3,3-3.2,3s-3.2-1.2-3.2-3v-7.8h1.2v7.7c0,1.2.8,2,2,2s2-.8,2-2v-7.7ZM1228.2,536.3h6.3v1.1h-2.5v9.6h-1.2v-9.6h-2.5v-1.1ZM1242.8,536.3h1.2v10.7h-1.2v-4.8h-3.9v4.8h-1.2v-10.7h1.2v4.8h3.9v-4.8ZM1174.5,552.3c1.7,0,2.9,1.1,2.9,2.8v5c0,1.7-1.2,2.8-2.9,2.8h-3.4v-10.7h3.4ZM1176.2,560v-4.7c0-1.1-.7-1.9-1.9-1.9h-2v8.5h2c1.2,0,1.9-.7,1.9-1.9ZM1184.5,552.3l2.3,6v4.6h-1.2v-3.4h-3.9v3.4h-1.2v-4.5l2.4-6.2h1.6ZM1181.8,558.5h3.9l-1.8-4.8h-.2l-1.8,4.8ZM1190.1,552.3h6.3v1.1h-2.5v9.6h-1.2v-9.6h-2.6v-1.1ZM1205,557.1v1.1h-4.5v-1.1h4.5ZM1213.3,557.3c1.6.6,2.1,1.7,2.1,2.9,0,1.8-1.3,3-3.2,3s-3.2-1.3-3.2-3.1h0c0-.1,1.2-.1,1.2-.1v.2c0,1.1.8,1.9,2,1.9s1.9-.8,1.9-1.8-.5-1.5-1.6-1.9l-1.3-.5c-1.7-.6-2.2-1.7-2.2-2.8,0-1.7,1.3-2.8,3.1-2.8s3.2,1.2,3.2,3h0c0,.1-1.2.1-1.2.1h0c0-1.3-.8-2.1-2-2.1s-1.9.7-1.9,1.7.5,1.4,1.4,1.7l1.5.6ZM1224.2,552.3h1v.6l-2.8,5.7v4.4h-1.2v-4.3l-2.9-5.8v-.6h1.1l2.2,4.8h.2l2.3-4.8ZM1233.2,552.3h1.2v10.7h-1.2v-3.6l-3.9-5.1v8.7h-1.2v-10.7h1.2l3.9,5.1v-5.1ZM1244,555.7h-1.2v-.5c0-1.2-.8-2-2-2s-2,.8-2,2v4.8c0,1.2.8,2,2,2s2-.8,2-2v-.5h1.2v.6c0,1.8-1.3,3-3.2,3s-3.2-1.2-3.2-3v-5c0-1.8,1.3-3,3.2-3s3.2,1.2,3.2,3v.6ZM1177.4,571.5c0,1.5-.8,2.6-2.1,3l2.1,3.9v.6h-1.1l-2.3-4.3h-1.8v4.3h-1.2v-10.7h3.1c1.9,0,3.2,1.3,3.2,3.2ZM1172.2,573.6h1.9c1.3,0,2.1-.8,2.1-2.1s-.8-2.1-2.1-2.1h-1.9v4.2ZM1185.7,568.3h1.2v7.8c0,1.8-1.3,3-3.2,3s-3.2-1.2-3.2-3v-7.8h1.2v7.7c0,1.2.8,2,2,2s2-.8,2-2v-7.7ZM1195.2,568.3h1.2v10.7h-1.2v-3.6l-3.9-5.1v8.7h-1.2v-10.7h1.2l3.9,5.1v-5.1ZM1204.7,568.3h1.2v10.7h-1.2v-3.6l-3.9-5.1v8.7h-1.2v-10.7h1.2l3.9,5.1v-5.1ZM1215.4,569.4h-5.1v3.7h4.1v1.1h-4.1v3.7h5.1v1.1h-6.3v-10.7h6.3v1.1ZM1225,571.5c0,1.5-.8,2.6-2.1,3l2.1,3.9v.6h-1.1l-2.3-4.3h-1.8v4.3h-1.2v-10.7h3.1c2,0,3.2,1.3,3.2,3.2ZM1219.8,573.6h1.8c1.3,0,2.1-.8,2.1-2.1s-.8-2.1-2.1-2.1h-1.8v4.2ZM1176.2,585.4h-2.7v8.6h2.7v1h-3.9v-10.7h3.9v1ZM1186.9,587.7h-1.2v-.5c0-1.2-.8-2-2-2s-2,.8-2,2v4.8c0,1.2.8,2,2,2s2-.8,2-2v-.5h1.2v.6c0,1.8-1.3,3-3.2,3s-3.2-1.2-3.2-3v-5c0-1.8,1.3-3,3.2-3s3.2,1.2,3.2,3v.6ZM1196.4,587.5c0,1.5-.8,2.6-2.1,3l2.1,3.9v.6h-1.1l-2.3-4.3h-1.8v4.3h-1.2v-10.7h3.1c1.9,0,3.2,1.3,3.2,3.2ZM1191.2,589.6h1.8c1.3,0,2.1-.8,2.1-2.1s-.8-2.1-2.1-2.1h-1.8v4.2ZM1205.9,585.4h-5.1v3.7h4.1v1.1h-4.1v3.7h5.1v1.1h-6.3v-10.7h6.3v1.1ZM1213.1,584.3l2.3,6v4.6h-1.2v-3.4h-3.9v3.4h-1.2v-4.5l2.4-6.2h1.6ZM1210.4,590.5h3.8l-1.8-4.8h-.2l-1.8,4.8ZM1218.6,584.3h6.3v1.1h-2.5v9.6h-1.2v-9.6h-2.5v-1.1ZM1231.3,584.2c1.9,0,3.2,1.2,3.2,3v5c0,1.8-1.3,3-3.2,3s-3.2-1.2-3.2-3v-5c0-1.8,1.3-3,3.2-3ZM1233.3,592v-4.8c0-1.2-.8-2-2-2s-2,.8-2,2v4.8c0,1.2.8,2,2,2s2-.8,2-2ZM1244,587.5c0,1.5-.8,2.6-2.1,3l2.1,3.9v.6h-1.1l-2.3-4.3h-1.8v4.3h-1.2v-10.7h3.1c1.9,0,3.2,1.3,3.2,3.2ZM1238.8,589.6h1.9c1.3,0,2.1-.8,2.1-2.1s-.8-2.1-2.1-2.1h-1.9v4.2ZM1263.1,587.7h-1.2v-.5c0-1.2-.8-2-2-2s-2,.8-2,2v4.8c0,1.2.8,2,2,2s2-.8,2-2v-.5h1.2v.6c0,1.8-1.3,3-3.2,3s-3.2-1.2-3.2-3v-5c0-1.8,1.3-3,3.2-3s3.2,1.2,3.2,3v.6ZM1267.4,593.9h5.1v1.1h-6.3v-10.7h1.2v9.6ZM1279.7,584.3l2.3,6v4.6h-1.2v-3.4h-3.9v3.4h-1.2v-4.5l2.4-6.2h1.6ZM1277,590.5h3.8l-1.8-4.8h-.2l-1.8,4.8ZM1289.5,589.3c1.6.6,2.1,1.7,2.1,2.9,0,1.8-1.3,3-3.2,3s-3.2-1.3-3.2-3.1h0c0-.1,1.2-.1,1.2-.1v.2c0,1.1.8,1.9,2,1.9s1.9-.8,1.9-1.8-.5-1.5-1.5-1.9l-1.3-.5c-1.7-.6-2.2-1.7-2.2-2.8,0-1.7,1.3-2.8,3.1-2.8s3.2,1.2,3.2,3h0c0,.1-1.2.1-1.2.1h0c0-1.3-.8-2.1-2-2.1s-1.9.7-1.9,1.7.5,1.4,1.4,1.7l1.5.6ZM1299,589.3c1.6.6,2.1,1.7,2.1,2.9,0,1.8-1.3,3-3.2,3s-3.2-1.3-3.2-3.1h0c0-.1,1.2-.1,1.2-.1v.2c0,1.1.8,1.9,2,1.9s1.9-.8,1.9-1.8-.5-1.5-1.6-1.9l-1.3-.5c-1.7-.6-2.2-1.7-2.2-2.8,0-1.7,1.3-2.8,3.1-2.8s3.2,1.2,3.2,3h0c0,.1-1.2.1-1.2.1h0c0-1.3-.8-2.1-2-2.1s-1.9.7-1.9,1.7.5,1.4,1.4,1.7l1.5.6ZM1309.4,584.3v10.7h-3.9v-1h2.7v-8.6h-2.7v-1h3.9ZM1177.4,603.7h-1.2v-.5c0-1.2-.8-2-2-2s-2,.8-2,2v4.8c0,1.2.8,2,2,2s2-.8,2-2v-.5h1.2v.6c0,1.8-1.3,3-3.2,3s-3.2-1.2-3.2-3v-5c0-1.8,1.3-3,3.2-3s3.2,1.2,3.2,3v.6ZM1185.5,600.3h1.4v10.7h-1.1v-8.4h-.2l-1.5,3.7h-.7l-1.5-3.7h-.2v8.4h-1.1v-10.7h1.4l1.7,4.2h.1l1.7-4.2ZM1193.5,600.3c1.7,0,2.9,1.1,2.9,2.8v5c0,1.7-1.2,2.8-2.9,2.8h-3.4v-10.7h3.4ZM1195.2,608v-4.7c0-1.1-.7-1.9-1.9-1.9h-2v8.5h2c1.2,0,1.9-.7,1.9-1.9ZM1205,605.1v1.1h-4.5v-1.1h4.5ZM1215.4,601.4h-5.1v3.7h4.1v1.1h-4.1v3.7h5.1v1.1h-6.3v-10.7h6.3v1.1ZM1225.2,600.3v.6l-2.5,4.7,2.5,4.8v.6h-1.1l-2.3-4.5h-.2s-2.2,4.5-2.2,4.5h-1.1v-.6l2.5-4.8-2.5-4.7v-.6h1.1l2.3,4.5h.2s2.2-4.5,2.2-4.5h1.1ZM1234.5,601.4h-5.1v3.7h4.1v1.1h-4.1v3.7h5.1v1.1h-6.3v-10.7h6.3v1.1ZM1244,603.7h-1.2v-.5c0-1.2-.8-2-2-2s-2,.8-2,2v4.8c0,1.2.8,2,2,2s2-.8,2-2v-.5h1.2v.6c0,1.8-1.3,3-3.2,3s-3.2-1.2-3.2-3v-5c0-1.8,1.3-3,3.2-3s3.2,1.2,3.2,3v.6ZM1176.6,624.7l-4.8-2.4v-1.3l4.8-2.4v1.2l-3.9,1.9,3.9,1.9v1.2ZM1187.4,616.3v.6l-6.5,10h-.9v-.6l6.5-10h.9ZM1196.9,616.3v.6l-6.5,10h-.9v-.6l6.5-10h.9ZM1200.3,624.7v-1.2l3.9-1.9-3.9-1.9v-1.2l4.8,2.4v1.3l-4.8,2.4Z"/>
      <path class="st2" d="M130,199.5h110"/>
      <path class="st2" d="M389.9,199.5h110"/>
      <path class="st2" d="M649.7,199.5h110"/>
      <path class="st2" d="M909.6,199.5h110"/>
      <path class="st2" d="M1169.4,199.5h110"/>
      <path class="st2" d="M1429.3,199.5h110"/>
      <path class="st2" d="M1689,199.5h110"/>
      <path class="st2" d="M130,522.5h110"/>
      <path class="st2" d="M390,522.5h110"/>
      <path class="st2" d="M650,522.5h110"/>
      <path class="st2" d="M910,522.5h110"/>
      <path class="st2" d="M1170,522.5h110"/>
      <path class="st2" d="M1430,522.5h110"/>
      <path class="st2" d="M1690,522.5h110"/>
      <path class="st3" d="M1696.7,213.8v.6l-2.8,4.7,2.8,4.8v.6h-1.1l-2.7-4.8h-1.8v4.8h-1.2v-10.7h1.2v4.8h1.7s2.7-4.8,2.7-4.8h1.1ZM1706.1,214.9h-5.1v3.7h4.1v1.1h-4.1v3.7h5.1v1.1h-6.3v-10.7h6.3v1.1ZM1714.8,213.8h1.1v.6l-2.8,5.7v4.4h-1.2v-4.3l-2.9-5.8v-.6h1.1l2.2,4.8h.2l2.3-4.8ZM1724.2,218.6v1.1h-4.5v-1.1h4.5ZM1732.3,213.8l2.3,6v4.6h-1.2v-3.4h-3.9v3.4h-1.2v-4.5l2.4-6.2h1.6ZM1729.6,220h3.8l-1.8-4.8h-.2l-1.8,4.8ZM1743,213.8h1.2v7.8c0,1.8-1.3,3-3.2,3s-3.2-1.2-3.2-3v-7.8h1.2v7.7c0,1.2.8,2,2,2s2-.8,2-2v-7.7ZM1747.3,213.8h6.3v1.1h-2.6v9.6h-1.2v-9.6h-2.5v-1.1ZM1761.9,213.8h1.2v10.7h-1.2v-4.8h-3.9v4.8h-1.2v-10.7h1.2v4.8h3.9v-4.8ZM1693.6,229.8c1.7,0,2.9,1.1,2.9,2.8v5c0,1.7-1.2,2.8-2.9,2.8h-3.4v-10.7h3.4ZM1695.3,237.5v-4.7c0-1.1-.7-1.9-1.9-1.9h-2v8.5h2c1.2,0,1.9-.7,1.9-1.9ZM1703.7,229.8l2.3,6v4.6h-1.2v-3.4h-3.9v3.4h-1.2v-4.5l2.4-6.2h1.6ZM1701,236h3.8l-1.8-4.8h-.2l-1.8,4.8ZM1709.3,229.8h6.3v1.1h-2.5v9.6h-1.2v-9.6h-2.5v-1.1ZM1724.2,234.6v1.1h-4.5v-1.1h4.5ZM1732.5,234.8c1.6.6,2.1,1.7,2.1,2.9,0,1.8-1.3,3-3.2,3s-3.2-1.3-3.2-3.1h0c0-.1,1.2-.1,1.2-.1v.2c0,1.1.8,1.9,2,1.9s1.9-.8,1.9-1.8-.5-1.5-1.6-1.9l-1.3-.5c-1.7-.6-2.2-1.7-2.2-2.8,0-1.7,1.3-2.8,3.1-2.8s3.2,1.2,3.2,3h0c0,.1-1.2.1-1.2.1h0c0-1.3-.8-2.1-2-2.1s-1.9.7-1.9,1.7.5,1.4,1.4,1.7l1.6.6ZM1743.4,229.8h1.1v.6l-2.8,5.7v4.4h-1.2v-4.3l-2.9-5.8v-.6h1.1l2.2,4.8h.2l2.3-4.8ZM1752.4,229.8h1.2v10.7h-1.2v-3.6l-3.9-5.1v8.7h-1.2v-10.7h1.2l3.9,5.1v-5.1ZM1763.2,233.2h-1.2v-.5c0-1.2-.8-2-2-2s-2,.8-2,2v4.8c0,1.2.8,2,2,2s2-.8,2-2v-.5h1.2v.6c0,1.8-1.3,3-3.2,3s-3.2-1.2-3.2-3v-5c0-1.8,1.3-3,3.2-3s3.2,1.2,3.2,3v.6ZM1696.6,249c0,1.5-.8,2.6-2.1,3l2.1,3.9v.6h-1.1l-2.3-4.3h-1.8v4.3h-1.2v-10.7h3.1c2,0,3.2,1.3,3.2,3.2ZM1691.4,251.1h1.8c1.3,0,2.1-.8,2.1-2.1s-.8-2.1-2.1-2.1h-1.8v4.2ZM1704.9,245.8h1.2v7.8c0,1.8-1.3,3-3.2,3s-3.2-1.2-3.2-3v-7.8h1.2v7.7c0,1.2.8,2,2,2s2-.8,2-2v-7.7ZM1714.3,245.8h1.2v10.7h-1.2v-3.6l-3.9-5.1v8.7h-1.2v-10.7h1.2l3.9,5.1v-5.1ZM1723.9,245.8h1.2v10.7h-1.2v-3.6l-3.9-5.1v8.7h-1.2v-10.7h1.2l3.9,5.1v-5.1ZM1734.6,246.9h-5.1v3.7h4.1v1.1h-4.1v3.7h5.1v1.1h-6.3v-10.7h6.3v1.1ZM1744.2,249c0,1.5-.8,2.6-2.1,3l2.1,3.9v.6h-1.1l-2.3-4.3h-1.8v4.3h-1.2v-10.7h3.1c1.9,0,3.2,1.3,3.2,3.2ZM1739,251.1h1.8c1.3,0,2.1-.8,2.1-2.1s-.8-2.1-2.1-2.1h-1.8v4.2ZM1695.3,262.8h-2.7v8.6h2.7v1.1h-3.9v-10.7h3.9v1ZM1706.1,265.2h-1.2v-.5c0-1.2-.8-2-2-2s-2,.8-2,2v4.8c0,1.2.8,2,2,2s2-.8,2-2v-.5h1.2v.6c0,1.8-1.3,3-3.2,3s-3.2-1.2-3.2-3v-5c0-1.8,1.3-3,3.2-3s3.2,1.2,3.2,3v.6ZM1715.6,265c0,1.5-.8,2.6-2.1,3l2.1,3.9v.6h-1.1l-2.3-4.3h-1.8v4.3h-1.2v-10.7h3.1c2,0,3.2,1.3,3.2,3.2ZM1710.4,267.1h1.8c1.3,0,2.1-.8,2.1-2.1s-.8-2.1-2.1-2.1h-1.8v4.2ZM1725.1,262.9h-5.1v3.7h4.1v1.1h-4.1v3.7h5.1v1.1h-6.3v-10.7h6.3v1.1ZM1732.3,261.8l2.3,6v4.6h-1.2v-3.4h-3.9v3.4h-1.2v-4.5l2.4-6.2h1.6ZM1729.6,268h3.8l-1.8-4.8h-.2l-1.8,4.8ZM1737.8,261.8h6.3v1.1h-2.6v9.6h-1.2v-9.6h-2.6v-1.1ZM1750.5,261.6c1.9,0,3.2,1.2,3.2,3v5c0,1.8-1.3,3-3.2,3s-3.2-1.2-3.2-3v-5c0-1.8,1.3-3,3.2-3ZM1752.5,269.5v-4.8c0-1.2-.8-2-2-2s-2,.8-2,2v4.8c0,1.2.8,2,2,2s2-.8,2-2ZM1763.2,265c0,1.5-.8,2.6-2.1,3l2.1,3.9v.6h-1.1l-2.3-4.3h-1.8v4.3h-1.2v-10.7h3.1c1.9,0,3.2,1.3,3.2,3.2ZM1758,267.1h1.8c1.3,0,2.1-.8,2.1-2.1s-.8-2.1-2.1-2.1h-1.8v4.2ZM1782.2,265.2h-1.2v-.5c0-1.2-.8-2-2-2s-2,.8-2,2v4.8c0,1.2.8,2,2,2s2-.8,2-2v-.5h1.2v.6c0,1.8-1.3,3-3.2,3s-3.2-1.2-3.2-3v-5c0-1.8,1.3-3,3.2-3s3.2,1.2,3.2,3v.6ZM1786.6,271.4h5.1v1.1h-6.3v-10.7h1.2v9.6ZM1798.9,261.8l2.3,6v4.6h-1.2v-3.4h-3.9v3.4h-1.2v-4.5l2.4-6.2h1.6ZM1796.2,268h3.8l-1.8-4.8h-.2l-1.8,4.8ZM1808.6,266.8c1.6.6,2.1,1.7,2.1,2.9,0,1.8-1.3,3-3.2,3s-3.2-1.3-3.2-3.1h0c0-.1,1.2-.1,1.2-.1v.2c0,1.1.8,1.9,2,1.9s1.9-.8,1.9-1.8-.5-1.5-1.6-1.9l-1.3-.5c-1.7-.6-2.2-1.7-2.2-2.8,0-1.7,1.3-2.8,3.1-2.8s3.2,1.2,3.2,3h0c0,.1-1.2.1-1.2.1h0c0-1.3-.8-2.1-2-2.1s-1.9.7-1.9,1.7.5,1.4,1.4,1.7l1.6.6ZM1818.2,266.8c1.6.6,2.1,1.7,2.1,2.9,0,1.8-1.3,3-3.2,3s-3.2-1.3-3.2-3.1h0c0-.1,1.2-.1,1.2-.1v.2c0,1.1.8,1.9,2,1.9s1.9-.8,1.9-1.8-.5-1.5-1.6-1.9l-1.3-.5c-1.7-.6-2.2-1.7-2.2-2.8,0-1.7,1.3-2.8,3.1-2.8s3.2,1.2,3.2,3h0c0,.1-1.2.1-1.2.1h0c0-1.3-.8-2.1-2-2.1s-1.9.7-1.9,1.7.5,1.4,1.4,1.7l1.6.6ZM1828.6,261.8v10.7h-3.9v-1.1h2.7v-8.6h-2.7v-1h3.9ZM1696.6,281.2h-1.2v-.5c0-1.2-.8-2-2-2s-2,.8-2,2v4.8c0,1.2.8,2,2,2s2-.8,2-2v-.5h1.2v.6c0,1.8-1.3,3-3.2,3s-3.2-1.2-3.2-3v-5c0-1.8,1.3-3,3.2-3s3.2,1.2,3.2,3v.6ZM1704.7,277.8h1.4v10.7h-1.1v-8.4h-.2l-1.5,3.7h-.7l-1.5-3.7h-.2v8.4h-1.1v-10.7h1.4l1.7,4.2h.1l1.7-4.2ZM1712.7,277.8c1.7,0,2.9,1.1,2.9,2.8v5c0,1.7-1.2,2.8-2.9,2.8h-3.4v-10.7h3.4ZM1714.4,285.5v-4.7c0-1.1-.7-1.9-1.9-1.9h-2v8.5h2c1.2,0,1.9-.7,1.9-1.9ZM1724.2,282.6v1.1h-4.5v-1.1h4.5ZM1734.6,278.9h-5.1v3.7h4.1v1.1h-4.1v3.7h5.1v1.1h-6.3v-10.7h6.3v1.1ZM1744.4,277.8v.6l-2.5,4.7,2.5,4.8v.6h-1.1l-2.3-4.5h-.2s-2.2,4.5-2.2,4.5h-1.1v-.6l2.5-4.8-2.5-4.7v-.6h1.1l2.3,4.5h.2s2.2-4.5,2.2-4.5h1.1ZM1753.6,278.9h-5.1v3.7h4.1v1.1h-4.1v3.7h5.1v1.1h-6.3v-10.7h6.3v1.1ZM1763.2,281.2h-1.2v-.5c0-1.2-.8-2-2-2s-2,.8-2,2v4.8c0,1.2.8,2,2,2s2-.8,2-2v-.5h1.2v.6c0,1.8-1.3,3-3.2,3s-3.2-1.2-3.2-3v-5c0-1.8,1.3-3,3.2-3s3.2,1.2,3.2,3v.6ZM1695.8,302.2l-4.8-2.4v-1.3l4.8-2.4v1.2l-3.9,1.9,3.9,1.9v1.2ZM1706.6,293.8v.6l-6.5,10h-.9v-.6l6.5-10h.9ZM1716.1,293.8v.6l-6.5,10h-.9v-.6l6.5-10h.9ZM1719.5,302.2v-1.2l3.9-1.9-3.9-1.9v-1.2l4.8,2.4v1.3l-4.8,2.4Z"/>
      <path class="st2" d="M1094.4,66.9V-43.1"/>
      <path class="st0" d="M124,1018.5h109.9"/>
      <path class="st2" d="M645.7,1014.5h110"/>
      <path class="st2" d="M906.6,1014.5h110"/>
      <path class="st2" d="M1167.4,1014.5h110"/>
      <path class="st2" d="M1428.3,1014.5h110"/>
      <path class="st2" d="M1689.2,1014.5h110"/>
      <path class="st3" d="M137.1,536.3v.6l-2.7,4.7,2.7,4.8v.6h-1.1l-2.7-4.8h-1.8v4.8h-1.2v-10.7h1.2v4.8h1.7s2.7-4.8,2.7-4.8h1.1ZM146.4,537.4h-5.1v3.7h4.1v1.1h-4.1v3.7h5.1v1.1h-6.3v-10.7h6.3v1.1ZM155.2,536.3h1.1v.6l-2.8,5.7v4.4h-1.2v-4.3l-2.9-5.8v-.6h1.1l2.3,4.8h.2l2.3-4.8ZM164.6,541.1v1.1h-4.5v-1.1h4.5ZM172.6,536.3l2.3,6v4.6h-1.2v-3.4h-3.9v3.4h-1.2v-4.5l2.4-6.2h1.6ZM169.9,542.5h3.8l-1.8-4.8h-.2l-1.8,4.8ZM183.3,536.3h1.2v7.8c0,1.8-1.3,3-3.2,3s-3.2-1.2-3.2-3v-7.8h1.2v7.7c0,1.2.8,2,2,2s2-.8,2-2v-7.7ZM187.7,536.3h6.3v1.1h-2.5v9.6h-1.2v-9.6h-2.5v-1.1ZM202.3,536.3h1.2v10.7h-1.2v-4.8h-3.9v4.8h-1.2v-10.7h1.2v4.8h3.9v-4.8ZM134,552.3c1.7,0,2.9,1.1,2.9,2.8v5c0,1.7-1.2,2.8-2.9,2.8h-3.4v-10.7h3.4ZM135.7,560v-4.7c0-1.1-.7-1.9-1.9-1.9h-2v8.5h2c1.2,0,1.9-.7,1.9-1.9ZM144.1,552.3l2.3,6v4.6h-1.2v-3.4h-3.9v3.4h-1.2v-4.5l2.4-6.2h1.6ZM141.4,558.5h3.9l-1.8-4.8h-.2l-1.8,4.8ZM149.6,552.3h6.3v1.1h-2.5v9.6h-1.2v-9.6h-2.5v-1.1ZM164.6,557.1v1.1h-4.5v-1.1h4.5ZM172.9,557.3c1.6.6,2.1,1.7,2.1,2.9,0,1.8-1.3,3-3.2,3s-3.2-1.3-3.2-3.1h0c0-.1,1.2-.1,1.2-.1v.2c0,1.1.8,1.9,2,1.9s1.9-.8,1.9-1.8-.5-1.5-1.6-1.9l-1.3-.5c-1.7-.6-2.2-1.7-2.2-2.8,0-1.7,1.3-2.8,3.1-2.8s3.2,1.2,3.2,3h0c0,.1-1.2.1-1.2.1h0c0-1.3-.8-2.1-2-2.1s-1.9.7-1.9,1.7.5,1.4,1.4,1.7l1.6.6ZM183.7,552.3h1.1v.6l-2.8,5.7v4.4h-1.2v-4.3l-2.9-5.8v-.6h1.1l2.3,4.8h.2l2.3-4.8ZM192.8,552.3h1.2v10.7h-1.2v-3.6l-3.9-5.1v8.7h-1.2v-10.7h1.2l3.9,5.1v-5.1ZM203.6,555.7h-1.2v-.5c0-1.2-.8-2-2-2s-2,.8-2,2v4.8c0,1.2.8,2,2,2s2-.8,2-2v-.5h1.2v.6c0,1.8-1.3,3-3.2,3s-3.2-1.2-3.2-3v-5c0-1.8,1.3-3,3.2-3s3.2,1.2,3.2,3v.6ZM136.9,571.5c0,1.5-.8,2.6-2.1,3l2.1,3.9v.6h-1.1l-2.3-4.3h-1.8v4.3h-1.2v-10.7h3.1c1.9,0,3.2,1.3,3.2,3.2ZM131.8,573.6h1.8c1.3,0,2.1-.8,2.1-2.1s-.8-2.1-2.1-2.1h-1.8v4.2ZM145.3,568.3h1.2v7.8c0,1.8-1.3,3-3.2,3s-3.2-1.2-3.2-3v-7.8h1.2v7.7c0,1.2.8,2,2,2s2-.8,2-2v-7.7ZM154.7,568.3h1.2v10.7h-1.2v-3.6l-3.9-5.1v8.7h-1.2v-10.7h1.2l3.9,5.1v-5.1ZM164.2,568.3h1.2v10.7h-1.2v-3.6l-3.9-5.1v8.7h-1.2v-10.7h1.2l3.9,5.1v-5.1ZM175,569.4h-5.1v3.7h4.1v1.1h-4.1v3.7h5.1v1.1h-6.3v-10.7h6.3v1.1ZM184.5,571.5c0,1.5-.8,2.6-2.1,3l2.1,3.9v.6h-1.1l-2.3-4.3h-1.8v4.3h-1.2v-10.7h3.1c1.9,0,3.2,1.3,3.2,3.2ZM179.3,573.6h1.8c1.3,0,2.1-.8,2.1-2.1s-.8-2.1-2.1-2.1h-1.8v4.2ZM135.7,585.4h-2.7v8.6h2.7v1h-3.9v-10.7h3.9v1ZM146.5,587.7h-1.2v-.5c0-1.2-.8-2-2-2s-2,.8-2,2v4.8c0,1.2.8,2,2,2s2-.8,2-2v-.5h1.2v.6c0,1.8-1.3,3-3.2,3s-3.2-1.2-3.2-3v-5c0-1.8,1.3-3,3.2-3s3.2,1.2,3.2,3v.6ZM156,587.5c0,1.5-.8,2.6-2.1,3l2.1,3.9v.6h-1.1l-2.3-4.3h-1.8v4.3h-1.2v-10.7h3.1c1.9,0,3.2,1.3,3.2,3.2ZM150.8,589.6h1.8c1.3,0,2.1-.8,2.1-2.1s-.8-2.1-2.1-2.1h-1.8v4.2ZM165.5,585.4h-5.1v3.7h4.1v1.1h-4.1v3.7h5.1v1.1h-6.3v-10.7h6.3v1.1ZM172.6,584.3l2.3,6v4.6h-1.2v-3.4h-3.9v3.4h-1.2v-4.5l2.4-6.2h1.6ZM169.9,590.5h3.8l-1.8-4.8h-.2l-1.8,4.8ZM178.2,584.3h6.3v1.1h-2.5v9.6h-1.2v-9.6h-2.5v-1.1ZM190.9,584.2c1.9,0,3.2,1.2,3.2,3v5c0,1.8-1.3,3-3.2,3s-3.2-1.2-3.2-3v-5c0-1.8,1.3-3,3.2-3ZM192.9,592v-4.8c0-1.2-.8-2-2-2s-2,.8-2,2v4.8c0,1.2.8,2,2,2s2-.8,2-2ZM203.5,587.5c0,1.5-.8,2.6-2.1,3l2.1,3.9v.6h-1.1l-2.3-4.3h-1.8v4.3h-1.2v-10.7h3.1c1.9,0,3.2,1.3,3.2,3.2ZM198.4,589.6h1.8c1.3,0,2.1-.8,2.1-2.1s-.8-2.1-2.1-2.1h-1.8v4.2ZM222.6,587.7h-1.2v-.5c0-1.2-.8-2-2-2s-2,.8-2,2v4.8c0,1.2.8,2,2,2s2-.8,2-2v-.5h1.2v.6c0,1.8-1.3,3-3.2,3s-3.2-1.2-3.2-3v-5c0-1.8,1.3-3,3.2-3s3.2,1.2,3.2,3v.6ZM227,593.9h5.1v1.1h-6.3v-10.7h1.2v9.6ZM239.2,584.3l2.3,6v4.6h-1.2v-3.4h-3.9v3.4h-1.2v-4.5l2.4-6.2h1.6ZM236.5,590.5h3.9l-1.8-4.8h-.2l-1.8,4.8ZM249,589.3c1.6.6,2.1,1.7,2.1,2.9,0,1.8-1.3,3-3.2,3s-3.2-1.3-3.2-3.1h0c0-.1,1.2-.1,1.2-.1v.2c0,1.1.8,1.9,2,1.9s1.9-.8,1.9-1.8-.5-1.5-1.6-1.9l-1.3-.5c-1.7-.6-2.2-1.7-2.2-2.8,0-1.7,1.3-2.8,3.1-2.8s3.2,1.2,3.2,3h0c0,.1-1.2.1-1.2.1h0c0-1.3-.8-2.1-2-2.1s-1.9.7-1.9,1.7.5,1.4,1.4,1.7l1.6.6ZM258.5,589.3c1.6.6,2.1,1.7,2.1,2.9,0,1.8-1.3,3-3.2,3s-3.2-1.3-3.2-3.1h0c0-.1,1.2-.1,1.2-.1v.2c0,1.1.8,1.9,2,1.9s1.9-.8,1.9-1.8-.5-1.5-1.6-1.9l-1.3-.5c-1.7-.6-2.2-1.7-2.2-2.8,0-1.7,1.3-2.8,3.1-2.8s3.2,1.2,3.2,3h0c0,.1-1.2.1-1.2.1h0c0-1.3-.8-2.1-2-2.1s-1.9.7-1.9,1.7.5,1.4,1.4,1.7l1.6.6ZM268.9,584.3v10.7h-3.9v-1h2.7v-8.6h-2.7v-1h3.9ZM137,603.7h-1.2v-.5c0-1.2-.8-2-2-2s-2,.8-2,2v4.8c0,1.2.8,2,2,2s2-.8,2-2v-.5h1.2v.6c0,1.8-1.3,3-3.2,3s-3.2-1.2-3.2-3v-5c0-1.8,1.3-3,3.2-3s3.2,1.2,3.2,3v.6ZM145,600.3h1.4v10.7h-1.1v-8.4h-.2l-1.5,3.7h-.7l-1.5-3.7h-.2v8.4h-1.1v-10.7h1.4l1.7,4.2h.1l1.7-4.2ZM153,600.3c1.7,0,2.9,1.1,2.9,2.8v5c0,1.7-1.2,2.8-2.9,2.8h-3.4v-10.7h3.4ZM154.7,608v-4.7c0-1.1-.7-1.9-1.9-1.9h-2v8.5h2c1.2,0,1.9-.7,1.9-1.9ZM164.6,605.1v1.1h-4.5v-1.1h4.5ZM175,601.4h-5.1v3.7h4.1v1.1h-4.1v3.7h5.1v1.1h-6.3v-10.7h6.3v1.1ZM184.8,600.3v.6l-2.5,4.7,2.5,4.8v.6h-1.1l-2.3-4.5h-.2s-2.2,4.5-2.2,4.5h-1.1v-.6l2.5-4.8-2.5-4.7v-.6h1.1l2.3,4.5h.2s2.2-4.5,2.2-4.5h1.1ZM194,601.4h-5.1v3.7h4.1v1.1h-4.1v3.7h5.1v1.1h-6.3v-10.7h6.3v1.1ZM203.6,603.7h-1.2v-.5c0-1.2-.8-2-2-2s-2,.8-2,2v4.8c0,1.2.8,2,2,2s2-.8,2-2v-.5h1.2v.6c0,1.8-1.3,3-3.2,3s-3.2-1.2-3.2-3v-5c0-1.8,1.3-3,3.2-3s3.2,1.2,3.2,3v.6ZM136.2,624.7l-4.8-2.4v-1.3l4.8-2.4v1.2l-3.9,1.9,3.9,1.9v1.2ZM147,616.3v.6l-6.5,10h-.9v-.6l6.5-10h.9ZM156.5,616.3v.6l-6.5,10h-.9v-.6l6.5-10h.9ZM159.9,624.7v-1.2l3.9-1.9-3.9-1.9v-1.2l4.8,2.4v1.3l-4.8,2.4Z"/>
      <path class="st2" d="M384.9,1014.5h110"/>
      <path class="st2" d="M54,882.9v-110"/>
      <path class="st2" d="M314,882.9v-110"/>
      <path class="st2" d="M574,882.9v-110"/>
      <path class="st2" d="M834,882.9v-110"/>
      <path class="st2" d="M1094,882.9v-110"/>
      <path class="st2" d="M1874,882.9v-110"/>
    </g>
  </g>
</svg>