 <svg height="268" width="141" viewBox="0 0 141 268" fill="none" xmlns="http://www.w3.org/2000/svg" >
            <path fillRule="evenodd" clipRule="evenodd" d="M91.248 -0.389374L-0.647729 89.9301V122.354L124.238 -0.389374H91.248ZM-0.954102 219.925L90.9416 129.605H90.9433L140.786 80.6164V113.04L114.756 138.624H114.755L-0.954102 252.349V219.925ZM15.4818 268.61L140.48 145.756V178.18L48.4717 268.61H15.4818ZM140.48 210.611L81.4608 268.619H114.449L140.48 243.035V210.611ZM57.9454 129.605L140.787 48.1849V15.7609L15.7884 138.615H15.7962L-0.954102 155.078V187.501L57.9532 129.605H57.9454ZM-0.647729 25.0835L25.2697 -0.389374H58.2595L-0.647729 57.5061V25.0835Z" fill="#27272a" />
        </svg>